<svg id="Layer_1" data-name="Layer 1" xmlns="http://www.w3.org/2000/svg" viewBox="0 0 377.05 309.43"><defs><style>.cls-1{fill:#f59cb7;stroke:#fff;stroke-miterlimit:10;}.cls-2{font-size:16px;fill:#bf768e;font-family:CooperBlackStd, Cooper Std;}.cls-3{letter-spacing:-0.1em;}.cls-4{letter-spacing:0.02em;}.cls-5{letter-spacing:0.04em;}</style></defs><title>p1</title><path class="cls-1" d="M20.2,199.64S41.11,188.16,69.79,249s-5.73,101,55.07,99.81,97.52-47,128.49-28.68,80.31,17.21,76.87-21.8-4.59-70,19.5-80.31,56.22-55.07,18.36-66.54-97.52-9.18-97.52-50.48-20.65-83.75-67.69-45.89S72.09,129.65,64.06,128.51-17.66,177.84,20.2,199.64Z" transform="translate(-8.95 -39.87)"/><text class="cls-2" transform="translate(88.48 120.74)">Keeping yourself busy <tspan x="0" y="19.2">may help your mood </tspan><tspan x="0" y="38.4">swing go awa</tspan><tspan class="cls-3" x="117.25" y="38.4">y</tspan><tspan x="126.03" y="38.4">. If you </tspan><tspan x="0" y="57.6">tend to ove</tspan><tspan class="cls-4" x="96.5" y="57.6">r</tspan><tspan x="105.82" y="57.6">think, then </tspan><tspan x="0" y="76.8">just go grab a co</tspan><tspan class="cls-5" x="140.8" y="76.8">f</tspan><tspan x="148.56" y="76.8">fee or </tspan><tspan x="0" y="96">go to gym. </tspan></text></svg>