<svg id="Layer_1" data-name="Layer 1" xmlns="http://www.w3.org/2000/svg" viewBox="0 0 377.05 309.43"><defs><style>.cls-1{fill:#76cedb;stroke:#fff;stroke-miterlimit:10;}.cls-2{font-size:16px;fill:#467475;font-family:CooperBlackStd, Cooper Std;}.cls-3{letter-spacing:-0.07em;}</style></defs><title>p2</title><path class="cls-1" d="M20.2,199.64S41.11,188.16,69.79,249s-5.73,101,55.07,99.81,97.52-47,128.49-28.68,80.31,17.21,76.87-21.8-4.59-70,19.5-80.31,56.22-55.07,18.36-66.54-97.52-9.18-97.52-50.48-20.65-83.75-67.69-45.89S72.09,129.65,64.06,128.51-17.66,177.84,20.2,199.64Z" transform="translate(-8.95 -39.87)"/><text class="cls-2" transform="translate(89.65 100.26)">Notice good things, <tspan x="0" y="19.2">look for them, appreci</tspan><tspan x="194.14" y="19.2">-</tspan><tspan x="0" y="38.4">ate them. Savo</tspan><tspan class="cls-3" x="126.75" y="38.4">r</tspan><tspan x="134.56" y="38.4">, </tspan><tspan x="0" y="57.6">absorb, and really pay </tspan><tspan x="0" y="76.8">attention to those good </tspan><tspan x="0" y="96">things. Express your </tspan><tspan x="0" y="115.2">gratitude to yourself, </tspan><tspan x="0" y="134.4">write it down, or </tspan><tspan x="0" y="153.6">thank someone.</tspan></text></svg>