<svg id="Layer_1" data-name="Layer 1" xmlns="http://www.w3.org/2000/svg" viewBox="0 0 377.05 309.43"><defs><style>.cls-1{fill:#80c678;stroke:#fff;stroke-miterlimit:10;}.cls-2{font-size:16px;fill:#467475;font-family:CooperBlackStd, Cooper Std;}.cls-3{letter-spacing:0.01em;}.cls-4{letter-spacing:0.02em;}</style></defs><title>p3</title><path class="cls-1" d="M20.2,199.64S41.11,188.16,69.79,249s-5.73,101,55.07,99.81,97.52-47,128.49-28.68,80.31,17.21,76.87-21.8-4.59-70,19.5-80.31,56.22-55.07,18.36-66.54-97.52-9.18-97.52-50.48-20.65-83.75-67.69-45.89S72.09,129.65,64.06,128.51-17.66,177.84,20.2,199.64Z" transform="translate(-8.95 -39.87)"/><text class="cls-2" transform="translate(89.65 100.26)">Positive people can <tspan x="0" y="19.2">change the way you </tspan><tspan x="0" y="38.4">look at life. They make </tspan><tspan x="0" y="57.6">you believe in yourself. </tspan><tspan x="0" y="76.8">By su</tspan><tspan class="cls-3" x="46.93" y="76.8">r</tspan><tspan x="56" y="76.8">rounding your</tspan><tspan x="181.68" y="76.8">-</tspan><tspan x="0" y="96">self with positive </tspan><tspan x="0" y="115.2">people, you sta</tspan><tspan class="cls-4" x="128.86" y="115.2">r</tspan><tspan x="138.19" y="115.2">t em</tspan><tspan x="176.16" y="115.2">-</tspan><tspan x="0" y="134.4">bracing their positive </tspan><tspan x="0" y="153.6">qualities as well.</tspan></text></svg>