<svg id="Layer_1" data-name="Layer 1" xmlns="http://www.w3.org/2000/svg" viewBox="0 0 377.05 309.43"><defs><style>.cls-1{fill:#e5e86a;stroke:#fff;stroke-miterlimit:10;}.cls-2{font-size:16px;fill:#717245;font-family:CooperBlackStd, Cooper Std;}.cls-3{letter-spacing:0.01em;}.cls-4{letter-spacing:-0.1em;}.cls-5{letter-spacing:0em;}</style></defs><title>p4</title><path class="cls-1" d="M20.2,199.64S41.11,188.16,69.79,249s-5.73,101,55.07,99.81,97.52-47,128.49-28.68,80.31,17.21,76.87-21.8-4.59-70,19.5-80.31,56.22-55.07,18.36-66.54-97.52-9.18-97.52-50.48-20.65-83.75-67.69-45.89S72.09,129.65,64.06,128.51-17.66,177.84,20.2,199.64Z" transform="translate(-8.95 -39.87)"/><text class="cls-2" transform="translate(99.84 114.53)">Laughing at yourself <tspan x="0" y="19.2">can improve your </tspan><tspan x="0" y="38.4">self-esteem. Imagine </tspan><tspan x="0" y="57.6">someone you know </tspan><tspan x="0" y="76.8">who takes themselves </tspan><tspan x="0" y="96">ve</tspan><tspan class="cls-3" x="19.46" y="96">r</tspan><tspan x="28.64" y="96">y seriousl</tspan><tspan class="cls-4" x="111.7" y="96">y</tspan><tspan class="cls-5" x="120.48" y="96">.</tspan></text></svg>