<svg id="Layer_1" data-name="Layer 1" xmlns="http://www.w3.org/2000/svg" viewBox="0 0 377.05 309.43"><defs><style>.cls-1{fill:#f26b21;stroke:#fff;stroke-miterlimit:10;}.cls-2{font-size:16px;fill:#6d3314;font-family:CooperBlackStd, Cooper Std;}.cls-3{letter-spacing:-0.09em;}.cls-4{letter-spacing:-0.13em;}</style></defs><title>p5</title><path class="cls-1" d="M20.2,199.64S41.11,188.16,69.79,249s-5.73,101,55.07,99.81,97.52-47,128.49-28.68,80.31,17.21,76.87-21.8-4.59-70,19.5-80.31,56.22-55.07,18.36-66.54-97.52-9.18-97.52-50.48-20.65-83.75-67.69-45.89S72.09,129.65,64.06,128.51-17.66,177.84,20.2,199.64Z" transform="translate(-8.95 -39.87)"/><text class="cls-2" transform="translate(74.36 114.53)">Practice Mindfulness <tspan x="0" y="19.2">and Self-</tspan><tspan class="cls-3" x="74.61" y="19.2">A</tspan><tspan x="87.14" y="19.2">wareness.</tspan><tspan x="0" y="38.4">Identify </tspan><tspan class="cls-4" x="74.46" y="38.4">Y</tspan><tspan x="85.5" y="38.4">our Negative </tspan><tspan x="0" y="57.6">Thoughts.</tspan><tspan x="0" y="76.8">Replace Negative Thoughts.</tspan><tspan class="cls-3" x="0" y="96">A</tspan><tspan x="12.53" y="96">void Thought Stopping.</tspan></text></svg>